<?xml version="1.0" encoding="UTF-8" standalone="no"?>
<svg
   xmlns:dc="http://purl.org/dc/elements/1.1/"
   xmlns:cc="http://creativecommons.org/ns#"
   xmlns:rdf="http://www.w3.org/1999/02/22-rdf-syntax-ns#"
   xmlns:svg="http://www.w3.org/2000/svg"
   xmlns="http://www.w3.org/2000/svg"
   xmlns:sodipodi="http://sodipodi.sourceforge.net/DTD/sodipodi-0.dtd"
   xmlns:inkscape="http://www.inkscape.org/namespaces/inkscape"
   version="1.0"
   x="0px"
   y="0px"
   width="822.05078"
   height="451.6825"
   xml:space="preserve"
   id="svg831"
   sodipodi:docname="batman.svg"
   inkscape:version="0.92.3 (2405546, 2018-03-11)"><metadata
   id="metadata837"><rdf:RDF><cc:Work
       rdf:about=""><dc:format>image/svg+xml</dc:format><dc:type
         rdf:resource="http://purl.org/dc/dcmitype/StillImage" /></cc:Work></rdf:RDF></metadata><defs
   id="defs835" /><sodipodi:namedview
   pagecolor="#ffffff"
   bordercolor="#666666"
   borderopacity="1"
   objecttolerance="10"
   gridtolerance="10"
   guidetolerance="10"
   inkscape:pageopacity="0"
   inkscape:pageshadow="2"
   inkscape:window-width="1440"
   inkscape:window-height="837"
   id="namedview833"
   showgrid="false"
   inkscape:zoom="0.20486111"
   inkscape:cx="559.3094"
   inkscape:cy="-13.162204"
   inkscape:window-x="-8"
   inkscape:window-y="-8"
   inkscape:window-maximized="1"
   inkscape:current-layer="svg831" />
<g
   id="Batman.jpg"
   transform="translate(-16.690604,-111.1553)">
<path
   style="fill:#ffffff"
   d="m 261.136,114.536 c -6.23,2.126 -13.645,4.289 -16.477,4.808 -15.226,2.787 -66.752,23.221 -92.686,36.757 -40.556,21.168 -72.9922,47.298 -102.6738,82.714 -8.2513,9.845 -22.7935,38.433 -28.2844,55.603 -6.1418,19.206 -5.656,62.923 0.9156,82.388 7.3136,21.663 17.6803,40.129 30.1561,53.718 6.1566,6.706 11.222,12.797 11.2566,13.536 0.1317,2.823 38.9349,35.647 57.1669,48.358 10.493,7.316 27.658,17.512 38.144,22.657 10.485,5.145 20.777,10.265 22.87,11.379 6.201,3.3 5.78,1.093 -2.052,-10.741 -14.666,-22.16 -21.024,-51.054 -15.15,-68.852 5.135,-15.558 27.691,-25.36 50.002,-21.729 19.718,3.209 37.818,14.054 56.634,33.932 15.719,16.606 21.175,23.903 24.352,32.57 2.156,5.88 3.638,4.276 9.552,-10.341 8.811,-21.774 24.946,-35.558 41.488,-35.442 21.304,0.149 53.329,32.388 66.451,66.894 1.292,3.399 3.792,9.887 5.554,14.418 1.763,4.532 5.249,15.156 7.748,23.61 4.745,16.059 6.252,16.078 8.769,0.107 1.523,-9.665 16.531,-48.358 20.783,-53.582 1.383,-1.699 4.975,-7.402 7.981,-12.673 8.06,-14.127 28.682,-31.937 41.751,-36.057 9.215,-2.905 12.146,-3.019 20.123,-0.786 14.166,3.967 27.92,19.991 35.196,41.006 l 2.536,7.326 3.854,-6.102 c 10.613,-16.804 26.569,-36.113 35.374,-42.806 5.414,-4.116 10.908,-8.381 12.209,-9.477 1.301,-1.097 8.248,-4.47 15.439,-7.496 25.041,-10.54 51.077,-6.826 63.155,9.008 4.684,6.141 5.659,9.73 6.265,23.053 0.636,13.99 -0.028,17.57 -5.852,31.56 -3.613,8.679 -8.774,19.029 -11.469,23 -2.694,3.971 -4.045,7.22 -3.002,7.22 2.717,0 39.572,-19.593 53.31,-28.34 27.493,-17.506 56.384,-43.135 71.375,-63.316 3.366,-4.532 6.669,-8.703 7.339,-9.269 3.259,-2.754 17.014,-30.05 21.931,-43.522 5.053,-13.845 5.543,-17.805 5.571,-45.045 0.035,-34.157 -2.31,-43.458 -18.587,-73.709 -9.505,-17.666 -12.656,-21.868 -31.737,-42.33 -36.906,-39.575 -100.27,-75.994 -166.835,-95.889 -39.882,-11.92 -41.194,-12.189 -41.194,-8.459 0,1.133 0.914,2.06 2.03,2.06 1.861,0 5.287,5.851 20.981,35.83 10.578,20.205 14.678,37.342 14.865,62.125 0.156,20.718 -0.384,24.158 -5.979,38.059 -7.958,19.771 -22.219,34.62 -39.456,41.083 -14.303,5.362 -23.636,4.508 -37.125,-3.397 -8.927,-5.232 -23.4,-22.311 -25.888,-30.551 -0.684,-2.266 -2.687,-8.046 -4.45,-12.846 -1.764,-4.799 -3.72,-14.994 -4.348,-22.656 -0.628,-7.662 -2.527,-25.5 -4.221,-39.641 -1.693,-14.14 -3.49,-32.214 -3.994,-40.164 -0.504,-7.95 -1.511,-18.472 -2.238,-23.382 l -1.323,-8.928 -5.919,6.48 c -3.256,3.565 -5.919,7.351 -5.919,8.414 0,1.063 -0.801,1.932 -1.78,1.932 -0.979,0 -4.349,3.708 -7.489,8.239 l -5.709,8.239 H 431.038 399.65 l -12.839,-16.597 c -7.062,-9.129 -13.302,-16.134 -13.868,-15.568 -0.566,0.565 -1.373,5.949 -1.793,11.962 -0.42,6.014 -2.21,22.856 -3.978,37.427 -1.767,14.572 -3.649,33.109 -4.182,41.194 -2.707,41.113 -10.206,62.535 -27.667,79.035 -8.867,8.379 -22.835,14.953 -31.815,14.974 -8.644,0.021 -24.776,-7.455 -34.035,-15.77 -22.521,-20.227 -30.627,-52.134 -23.992,-94.434 2.413,-15.386 21.081,-55.702 30.446,-65.754 2.06,-2.212 3.746,-4.774 3.746,-5.693 0,-0.92 0.232,-2.274 0.515,-3.011 1.092,-2.839 -8.211,-2.019 -19.052,1.68 v 0"
   id="path828"
   inkscape:connector-curvature="0" />
</g>

</svg>
